<?xml version="1.0" encoding="utf-8"?>
<!-- Generator: Adobe Illustrator 16.0.0, SVG Export Plug-In . SVG Version: 6.00 Build 0)  -->
<!DOCTYPE svg PUBLIC "-//W3C//DTD SVG 1.1//EN" "http://www.w3.org/Graphics/SVG/1.1/DTD/svg11.dtd">
<svg version="1.1" id="圖層_1" xmlns="http://www.w3.org/2000/svg" xmlns:xlink="http://www.w3.org/1999/xlink" x="0px" y="0px"
	 width="336px" height="88.307px" viewBox="0 0 336 88.307" enable-background="new 0 0 336 88.307" xml:space="preserve">
<g>
	<g>
		<path fill="#666666" d="M121.373,51.346H89.169c0.287,2.584,0.979,4.512,2.08,5.777c1.545,1.82,3.563,2.73,6.049,2.73
			c1.57,0,3.064-0.398,4.479-1.195c0.863-0.506,1.795-1.396,2.791-2.672l15.891,1.477c-2.424,4.213-5.348,7.236-8.77,9.064
			c-3.424,1.834-8.334,2.748-14.731,2.748c-5.556,0-9.927-0.785-13.113-2.355s-5.825-4.066-7.919-7.482
			c-2.094-3.422-3.139-7.438-3.139-12.059c0-6.57,2.098-11.888,6.299-15.951c4.199-4.066,10-6.099,17.4-6.099
			c6.003,0,10.744,0.913,14.219,2.737c3.479,1.822,6.123,4.469,7.939,7.932c1.818,3.463,2.729,7.971,2.729,13.523V51.346z
			 M104.99,43.611c-0.316-3.118-1.148-5.351-2.501-6.697s-3.128-2.021-5.331-2.021c-2.545,0-4.578,1.019-6.1,3.052
			c-0.973,1.268-1.589,3.158-1.852,5.667H104.99z"/>
		<path fill="#666666" d="M124.07,26.314h16.991l8.708,27.944l8.01-27.944h15.861L157,71.191c-1.898,5.098-3.834,8.543-5.813,10.33
			c-2.795,2.523-7.055,3.785-12.773,3.785c-2.32,0-5.906-0.316-10.758-0.955l-1.266-11.25c2.318,0.73,4.902,1.096,7.748,1.096
			c1.898,0,3.434-0.434,4.607-1.295c1.172-0.863,2.168-2.408,2.984-4.629L124.07,26.314z"/>
		<path fill="#666666" d="M259.891,26.314h16.102v41.977h-16.102V26.314z"/>
		<path fill="#666666" d="M286.232,26.314h14.994v6.804c2.244-2.791,4.512-4.789,6.805-5.988c2.297-1.201,5.092-1.8,8.391-1.8
			c4.459,0,7.949,1.325,10.469,3.978c2.52,2.648,3.779,6.744,3.779,12.281v26.703h-16.172V45.164c0-2.642-0.49-4.507-1.465-5.605
			c-0.979-1.094-2.354-1.644-4.123-1.644c-1.953,0-3.539,0.739-4.754,2.22c-1.213,1.478-1.822,4.131-1.822,7.958v20.197h-16.102
			V26.314z"/>
	</g>
	<radialGradient id="SVGID_1_" cx="265.043" cy="5.4019" r="20.8556" gradientUnits="userSpaceOnUse">
		<stop  offset="0" style="stop-color:#FFFFFF"/>
		<stop  offset="0.35" style="stop-color:#D61719"/>
		<stop  offset="0.85" style="stop-color:#75161A"/>
		<stop  offset="1" style="stop-color:#C9161D"/>
	</radialGradient>
	<path fill-rule="evenodd" clip-rule="evenodd" fill="url(#SVGID_1_)" d="M259.352,8.948c1.598-4.627,6.861-7.178,11.49-5.422
		c4.785,1.596,7.178,6.861,5.582,11.488c-1.756,4.787-6.859,7.18-11.646,5.582C260.148,18.844,257.598,13.737,259.352,8.948z"/>
</g>
<line fill="none" stroke="#666666" stroke-width="1.5" x1="9.583" y1="11.569" x2="9.583" y2="69.568"/>
<polygon display="none" fill="#666666" points="14.417,14.584 14.25,72.5 26.156,72.541 26.156,58.432 35.441,48.764 47.615,72.541 
	69.679,72.541 47.625,36.412 68.765,14.533 44.939,14.533 26.156,36.453 26.156,14.584 "/>
<g>
	<polygon fill="#666666" points="179.925,10.309 190.189,10.309 196.324,43.074 205.33,10.615 222.205,10.615 231.168,42.666 
		237.383,10.615 254.311,10.615 241.525,68.624 223.947,68.624 213.775,32.102 203.645,68.624 193.001,68.5 	"/>
</g>
<polygon fill="#666666" points="174.458,10.375 175.792,10.375 189.125,68.5 187.958,68.5 "/>
<polygon fill="#666666" points="177.163,10.375 178.466,10.375 191.5,68.5 190.36,68.5 "/>
<line fill="none" stroke="#666666" stroke-width="1.5" x1="12.292" y1="11.654" x2="12.292" y2="69.653"/>
<polygon fill="#666666" points="14.375,11.5 14.375,69.541 26.531,69.541 26.531,55.432 35.75,45.5 47.99,69.541 70.054,69.541 
	48,33.412 69.14,11.533 45.314,11.533 26.531,33.453 26.531,11.5 "/>
</svg>
